<svg width="52" height="52" viewBox="0 0 52 52" fill="none" xmlns="http://www.w3.org/2000/svg">
<path d="M15.4375 0H15.6609C18.9008 0 21.907 1.71742 23.5523 4.51445L26 8.67953L28.4477 4.51445C30.093 1.71742 33.0992 0 36.3391 0H36.5625C41.4984 0 45.5 4.00156 45.5 8.9375C45.5 10.4 45.1445 11.6898 44.525 13H48.75C50.5477 13 52 14.4523 52 16.25V22.75C52 24.5477 50.5477 26 48.75 26H3.25C1.45539 26 0 24.5477 0 22.75V16.25C0 14.4523 1.45539 13 3.25 13H7.475C6.85141 11.6898 6.5 10.4 6.5 8.9375C6.5 4.00156 10.5016 0 15.4375 0ZM19.3477 6.98547C18.5758 5.67836 17.1742 4.875 15.6609 4.875H15.4375C13.193 4.875 11.375 6.69398 11.375 8.9375C11.375 11.182 13.193 13 15.4375 13H22.882L19.3477 6.98547ZM36.5625 4.875H36.3391C34.8258 4.875 33.4242 5.67836 32.6523 6.98547L29.118 13H36.5625C38.807 13 40.625 11.182 40.625 8.9375C40.625 6.69398 38.807 4.875 36.5625 4.875ZM3.25 29.25H24V52H8.125C5.43258 52 3.25 49.8164 3.25 47.125V29.25ZM28 52V29.25H48.75V47.125C48.75 49.8164 46.5664 52 43.875 52H28Z" fill="url(#paint0_linear_1_3)"/>
<defs>
<linearGradient id="paint0_linear_1_3" x1="26" y1="0" x2="26" y2="52" gradientUnits="userSpaceOnUse">
<stop stop-color="#00FF29"/>
<stop offset="1" stop-color="#FAFF00"/>
</linearGradient>
</defs>
</svg>
