<svg width="32" height="24" viewBox="0 0 32 24" fill="none" xmlns="http://www.w3.org/2000/svg">
<path d="M7.28889 23.9624V11.3402L0 5.74017V21.2957C0 23.0735 0.888889 23.9624 2.66667 23.9624" fill="#4285F4"/>
<path d="M6.93333 11.2513L16 18.0957L25.0667 11.2513V2.54016L16 9.38461L6.93333 2.54016" fill="#EA4335"/>
<path d="M24.7111 23.9624V11.3402L32 5.74017V21.2957C32 23.0735 31.1111 23.9624 29.3333 23.9624" fill="#34A853"/>
<path d="M0 5.91798L7.28889 11.518V2.80687L4.62222 0.762424C2.22222 -1.10424 0 0.762424 0 3.07354" fill="#C5221F"/>
<path d="M32 5.91798L24.7111 11.518V2.80687L27.3778 0.762424C29.7778 -1.10424 32 0.762424 32 3.07354" fill="#FBBC04"/>
</svg>
