<svg width="30" height="30" viewBox="0 0 30 30" fill="none" xmlns="http://www.w3.org/2000/svg">
<g clip-path="url(#clip0_5_276)">
<path d="M8.58147 26.8703C4.83426 25.5206 1.7994 21.2473 1.43164 18.4907C2.28028 20.9795 5.09376 22.6166 6.31185 22.8945L8.58147 26.8703Z" fill="white" fill-opacity="0.1"/>
<path d="M8.53189 24.5305C8.35369 24.0559 7.96561 23.4482 7.79395 23.2036C8.97949 23.4511 10.6523 23.0878 11.3405 22.8752C11.5345 23.3595 12.1547 24.5411 13.0834 25.3928C14.012 26.2444 15.1844 28.1563 15.6546 29.0057C14.8163 29.128 12.3011 28.4047 11.1482 28.0277C10.6895 27.9027 8.75473 25.1239 8.53189 24.5305Z" fill="white" fill-opacity="0.1"/>
<path d="M14.2563 24.7822C13.7874 24.0666 12.8792 22.9935 12.4838 22.5464C13.3983 22.2831 14.69 21.2258 15.2216 20.7302C15.6673 21.1168 16.7044 22.1333 17.2866 23.1063C18.0144 24.3227 19.5201 26.6948 20.1914 27.3023C20.7284 27.7884 21.5462 28.8512 21.888 29.3219C19.9998 30.0549 17.7769 29.5909 17.5398 29.4454L14.2563 24.7822Z" fill="white" fill-opacity="0.1"/>
<path d="M18.3728 19.1546C17.7727 19.4335 17.059 19.853 16.7771 20.0279C17.1559 20.4952 19.5945 23.2832 20.2012 24.3991C20.6865 25.2918 22.7867 27.5642 23.7761 28.5889C25.0412 28.2484 26.3494 26.8064 26.8452 26.128C26.4214 25.7766 24.7505 24.0337 23.3926 22.6525C22.3062 21.5476 20.5696 19.1373 19.8372 18.0703C19.5991 18.3155 18.973 18.8758 18.3728 19.1546Z" fill="white" fill-opacity="0.1"/>
<path d="M29.1896 21.2784C27.3364 19.6194 24.3544 15.7543 23.0949 14.0291C22.8568 14.6973 22.1234 16.2614 21.0952 17.1723C21.3781 17.6111 22.0915 18.6315 22.681 19.2021C23.4179 19.9152 24.3765 20.6079 25.094 21.7135C25.6679 22.598 27.3017 24.0206 28.0468 24.6213C28.3484 24.2585 28.5393 23.906 28.8152 23.2665C29.0361 22.755 29.1569 21.728 29.1896 21.2784Z" fill="white" fill-opacity="0.1"/>
<path d="M26.2323 15.9154C25.5089 14.8663 24.1635 13.2979 23.5812 12.6448C24.299 11.1942 24.5854 10.0031 24.6389 9.58887C25.1791 10.19 25.7139 10.755 26.4966 11.5377C27.2793 12.3205 27.435 12.3438 28.2966 13.2283C29.1581 14.1129 29.6421 15.1161 29.7687 15.4764C30.0279 17.4548 29.717 18.9945 29.5291 19.5171C28.7316 18.7537 26.9558 16.9647 26.2323 15.9154Z" fill="white" fill-opacity="0.1"/>
<path d="M24.7115 7.96349C24.897 8.03561 26.7574 9.18203 29.1936 12.2925C28.5535 6.60317 22.6532 2.6521 22.7168 2.73442C24.2925 4.77634 24.7032 7.07129 24.7115 7.96349Z" fill="white" fill-opacity="0.1"/>
<path d="M3.24083 13.3713C1.89346 13.3927 1.35227 12.3538 1.27139 11.8036C1.19052 11.2535 0.490048 11.3324 0.361537 11.6825C0.23311 12.0325 0.302629 13.1432 1.15802 13.7738C1.68728 14.1616 2.7885 14.8204 6.24676 13.7035C8.69692 12.9123 10.4498 14.3857 10.9135 14.8553C9.46504 13.1395 8.16898 12.8717 7.04422 12.8307C5.91938 12.7897 4.9739 13.3437 3.24083 13.3713Z" fill="white" fill-opacity="0.1"/>
<path d="M16.7705 3.52946C17.1876 2.24999 16.3525 1.42763 15.8499 1.18848C15.3471 0.949417 15.6289 0.304179 16.0017 0.284628C16.3745 0.265075 17.4171 0.658345 17.7688 1.66029C17.9842 2.27948 18.2905 3.52446 16.2036 6.49595C14.725 8.60123 15.6192 10.7076 15.9322 11.2886C14.7164 9.40115 14.8416 8.08547 15.1335 6.99995C15.4253 5.91456 16.2339 5.17523 16.7705 3.52946Z" fill="white" fill-opacity="0.1"/>
</g>
<defs>
<clipPath id="clip0_5_276">
<rect width="30" height="30" fill="white"/>
</clipPath>
</defs>
</svg>
