<svg width="50" height="50" viewBox="0 0 50 50" fill="none" xmlns="http://www.w3.org/2000/svg">
<path d="M14.3025 44.7838C8.05715 42.5343 2.99904 35.4122 2.38611 30.8179C3.80051 34.9658 8.48965 37.6943 10.5198 38.1575L14.3025 44.7838Z" fill="white"/>
<path d="M14.2198 40.8843C13.9228 40.0932 13.276 39.0804 12.9899 38.6727C14.9658 39.0852 17.7539 38.4797 18.9009 38.1255C19.2242 38.9326 20.2578 40.902 21.8057 42.3215C23.3533 43.7408 25.3073 46.9273 26.091 48.3429C24.6938 48.5468 20.5018 47.3412 18.5804 46.7129C17.8158 46.5046 14.5912 41.8732 14.2198 40.8843Z" fill="white"/>
<path d="M23.7605 41.3036C22.979 40.1109 21.4653 38.3224 20.8062 37.5772C22.3304 37.1384 24.4832 35.3763 25.3692 34.5503C26.1121 35.1946 27.8406 36.8888 28.8109 38.5105C30.0239 40.5377 32.5335 44.4912 33.6522 45.5037C34.5472 46.3139 35.9102 48.0853 36.48 48.8697C33.3329 50.0915 29.6281 49.3181 29.233 49.0756L23.7605 41.3036Z" fill="white"/>
<path d="M30.6214 31.9244C29.6212 32.3891 28.4317 33.0884 27.9619 33.3799C28.5932 34.1586 32.6576 38.8053 33.6687 40.6652C34.4776 42.153 37.9779 45.9404 39.6269 47.6481C41.7354 47.0807 43.9157 44.6774 44.7421 43.5467C44.0357 42.961 41.2509 40.0561 38.9877 37.7542C37.1771 35.9126 34.2828 31.8955 33.062 30.1172C32.6652 30.5259 31.6217 31.4597 30.6214 31.9244Z" fill="white"/>
<path d="M48.6493 35.464C45.5607 32.699 40.5906 26.2572 38.4915 23.3818C38.0946 24.4955 36.8724 27.1024 35.1587 28.6205C35.6302 29.3519 36.8191 31.0526 37.8017 32.0036C39.0299 33.1921 40.6275 34.3465 41.8233 36.1892C42.7799 37.6633 45.5028 40.0343 46.7447 41.0356C47.2474 40.4309 47.5655 39.8434 48.0254 38.7776C48.3935 37.925 48.5948 36.2133 48.6493 35.464Z" fill="white"/>
<path d="M43.7205 26.5257C42.5148 24.7771 40.2725 22.1631 39.3019 21.0747C40.4982 18.657 40.9756 16.6718 41.0647 15.9814C41.9651 16.9833 42.8564 17.9249 44.1609 19.2295C45.4655 20.5341 45.7249 20.573 47.1609 22.0472C48.5968 23.5215 49.4035 25.1935 49.6145 25.794C50.0465 29.0913 49.5283 31.6575 49.2151 32.5284C47.886 31.2561 44.9262 28.2745 43.7205 26.5257Z" fill="white"/>
<path d="M41.1858 13.2724C41.495 13.3926 44.5957 15.3033 48.656 20.4874C47.5892 11.0052 37.7554 4.42008 37.8614 4.55728C40.4876 7.96049 41.172 11.7854 41.1858 13.2724Z" fill="white"/>
<path d="M5.40143 22.2855C3.1558 22.3211 2.25382 20.5896 2.11903 19.6727C1.98424 18.7558 0.816787 18.8873 0.602602 19.4708C0.388557 20.0542 0.504422 21.9053 1.93007 22.9563C2.81217 23.6026 4.64754 24.7007 10.4113 22.8392C14.4949 21.5205 17.4163 23.9761 18.1892 24.7589C15.7751 21.8991 13.615 21.4529 11.7404 21.3845C9.86568 21.3162 8.28988 22.2395 5.40143 22.2855Z" fill="white"/>
<path d="M27.9509 5.88236C28.6461 3.74991 27.2543 2.37931 26.4165 1.98072C25.5785 1.58228 26.0482 0.506884 26.6696 0.474298C27.2909 0.44171 29.0285 1.09716 29.6148 2.76707C29.9737 3.79906 30.4843 5.87401 27.0061 10.8265C24.5418 14.3353 26.032 17.846 26.5537 18.8142C24.5274 15.6685 24.7361 13.4757 25.2226 11.6665C25.7089 9.85751 27.0566 8.62531 27.9509 5.88236Z" fill="white"/>
</svg>
