<svg width="623" height="254" viewBox="0 0 623 254" fill="none" xmlns="http://www.w3.org/2000/svg">
<path d="M363.64 244L376.12 216H382.52L395.04 244H388.24L378 219.28H380.56L370.28 244H363.64ZM369.88 238L371.6 233.08H386L387.76 238H369.88ZM402.339 244V221.28H393.379V216H417.779V221.28H408.819V244H402.339ZM438.393 244V221.28H429.433V216H453.833V221.28H444.873V244H438.393ZM476.52 216H483V244H476.52V216ZM463.8 244H457.32V216H463.8V244ZM477 232.52H463.32V227.04H477V232.52ZM489.625 244V216H496.105V244H489.625ZM511.95 244.48C509.71 244.48 507.563 244.187 505.51 243.6C503.456 242.987 501.803 242.2 500.55 241.24L502.75 236.36C503.95 237.213 505.363 237.92 506.99 238.48C508.643 239.013 510.31 239.28 511.99 239.28C513.27 239.28 514.296 239.16 515.07 238.92C515.87 238.653 516.456 238.293 516.83 237.84C517.203 237.387 517.39 236.867 517.39 236.28C517.39 235.533 517.096 234.947 516.51 234.52C515.923 234.067 515.15 233.707 514.19 233.44C513.23 233.147 512.163 232.88 510.99 232.64C509.843 232.373 508.683 232.053 507.51 231.68C506.363 231.307 505.31 230.827 504.35 230.24C503.39 229.653 502.603 228.88 501.99 227.92C501.403 226.96 501.11 225.733 501.11 224.24C501.11 222.64 501.536 221.187 502.39 219.88C503.27 218.547 504.576 217.493 506.31 216.72C508.07 215.92 510.27 215.52 512.91 215.52C514.67 215.52 516.403 215.733 518.11 216.16C519.816 216.56 521.323 217.173 522.63 218L520.63 222.92C519.323 222.173 518.016 221.627 516.71 221.28C515.403 220.907 514.123 220.72 512.87 220.72C511.616 220.72 510.59 220.867 509.79 221.16C508.99 221.453 508.416 221.84 508.07 222.32C507.723 222.773 507.55 223.307 507.55 223.92C507.55 224.64 507.843 225.227 508.43 225.68C509.016 226.107 509.79 226.453 510.75 226.72C511.71 226.987 512.763 227.253 513.91 227.52C515.083 227.787 516.243 228.093 517.39 228.44C518.563 228.787 519.63 229.253 520.59 229.84C521.55 230.427 522.323 231.2 522.91 232.16C523.523 233.12 523.83 234.333 523.83 235.8C523.83 237.373 523.39 238.813 522.51 240.12C521.63 241.427 520.31 242.48 518.55 243.28C516.816 244.08 514.616 244.48 511.95 244.48Z" fill="white" fill-opacity="0.05"/>
<path d="M16.6 194V54H49V167.6H119.2V194H16.6ZM202.959 196.4C191.893 196.4 181.626 194.6 172.159 191C162.826 187.4 154.693 182.333 147.759 175.8C140.959 169.267 135.626 161.6 131.759 152.8C128.026 144 126.159 134.4 126.159 124C126.159 113.6 128.026 104 131.759 95.2C135.626 86.4 141.026 78.7333 147.959 72.2C154.893 65.6667 163.026 60.6 172.359 57C181.693 53.4 191.826 51.6 202.759 51.6C213.826 51.6 223.959 53.4 233.159 57C242.493 60.6 250.559 65.6667 257.359 72.2C264.293 78.7333 269.693 86.4 273.559 95.2C277.426 103.867 279.359 113.467 279.359 124C279.359 134.4 277.426 144.067 273.559 153C269.693 161.8 264.293 169.467 257.359 176C250.559 182.4 242.493 187.4 233.159 191C223.959 194.6 213.893 196.4 202.959 196.4ZM202.759 168.8C209.026 168.8 214.759 167.733 219.959 165.6C225.293 163.467 229.959 160.4 233.959 156.4C237.959 152.4 241.026 147.667 243.159 142.2C245.426 136.733 246.559 130.667 246.559 124C246.559 117.333 245.426 111.267 243.159 105.8C241.026 100.333 237.959 95.6 233.959 91.6C230.093 87.6 225.493 84.5333 220.159 82.4C214.826 80.2667 209.026 79.2 202.759 79.2C196.493 79.2 190.693 80.2667 185.359 82.4C180.159 84.5333 175.559 87.6 171.559 91.6C167.559 95.6 164.426 100.333 162.159 105.8C160.026 111.267 158.959 117.333 158.959 124C158.959 130.533 160.026 136.6 162.159 142.2C164.426 147.667 167.493 152.4 171.359 156.4C175.359 160.4 180.026 163.467 185.359 165.6C190.693 167.733 196.493 168.8 202.759 168.8ZM371.709 196.4C360.643 196.4 350.376 194.6 340.909 191C331.576 187.4 323.443 182.333 316.509 175.8C309.709 169.267 304.376 161.6 300.509 152.8C296.776 144 294.909 134.4 294.909 124C294.909 113.6 296.776 104 300.509 95.2C304.376 86.4 309.776 78.7333 316.709 72.2C323.643 65.6667 331.776 60.6 341.109 57C350.443 53.4 360.576 51.6 371.509 51.6C382.576 51.6 392.709 53.4 401.909 57C411.243 60.6 419.309 65.6667 426.109 72.2C433.043 78.7333 438.443 86.4 442.309 95.2C446.176 103.867 448.109 113.467 448.109 124C448.109 134.4 446.176 144.067 442.309 153C438.443 161.8 433.043 169.467 426.109 176C419.309 182.4 411.243 187.4 401.909 191C392.709 194.6 382.643 196.4 371.709 196.4ZM371.509 168.8C377.776 168.8 383.509 167.733 388.709 165.6C394.043 163.467 398.709 160.4 402.709 156.4C406.709 152.4 409.776 147.667 411.909 142.2C414.176 136.733 415.309 130.667 415.309 124C415.309 117.333 414.176 111.267 411.909 105.8C409.776 100.333 406.709 95.6 402.709 91.6C398.843 87.6 394.243 84.5333 388.909 82.4C383.576 80.2667 377.776 79.2 371.509 79.2C365.243 79.2 359.443 80.2667 354.109 82.4C348.909 84.5333 344.309 87.6 340.309 91.6C336.309 95.6 333.176 100.333 330.909 105.8C328.776 111.267 327.709 117.333 327.709 124C327.709 130.533 328.776 136.6 330.909 142.2C333.176 147.667 336.243 152.4 340.109 156.4C344.109 160.4 348.776 163.467 354.109 165.6C359.443 167.733 365.243 168.8 371.509 168.8ZM501.459 162L499.659 124.6L566.659 54H602.659L542.259 119L524.259 138.2L501.459 162ZM472.459 194V54H504.659V194H472.459ZM568.259 194L518.459 133L539.659 110L606.059 194H568.259Z" fill="white" fill-opacity="0.05"/>
<path d="M607 236.5C610 239 612.5 244 615.5 247.5" stroke="white" stroke-opacity="0.05" stroke-width="2" stroke-linecap="round"/>
<path d="M579 216.03C591 215.53 595.5 225 603 232" stroke="white" stroke-opacity="0.05" stroke-width="2" stroke-linecap="round"/>
<path d="M620.064 249.542C619.644 244.571 621.427 239.96 621.427 235" stroke="white" stroke-opacity="0.05" stroke-width="2" stroke-linecap="round"/>
<path d="M616.36 252.635C610.579 250.306 606.045 245.511 600 244" stroke="white" stroke-opacity="0.05" stroke-width="2" stroke-linecap="round"/>
</svg>
