<svg width="72" height="19" viewBox="0 0 72 19" fill="none" xmlns="http://www.w3.org/2000/svg">
<path d="M1.584 15C1.46667 15 1.37067 14.9627 1.296 14.888C1.22133 14.8133 1.184 14.7173 1.184 14.6V4.2C1.184 4.08267 1.22133 3.98667 1.296 3.912C1.37067 3.83733 1.46667 3.8 1.584 3.8H10.208C10.3253 3.8 10.4213 3.83733 10.496 3.912C10.5707 3.98667 10.608 4.08267 10.608 4.2V14.6C10.608 14.7173 10.5707 14.8133 10.496 14.888C10.4213 14.9627 10.3253 15 10.208 15H8.464C8.34667 15 8.25067 14.9627 8.176 14.888C8.10133 14.8133 8.064 14.7173 8.064 14.6V6.072H3.728V14.6C3.728 14.7173 3.69067 14.8133 3.616 14.888C3.54133 14.9627 3.44533 15 3.328 15H1.584ZM13.1249 15C13.0289 15 12.9489 14.968 12.8849 14.904C12.8209 14.8293 12.7889 14.7493 12.7889 14.664C12.7889 14.6107 12.7942 14.5627 12.8049 14.52L16.6129 4.232C16.6449 4.11467 16.7089 4.01333 16.8049 3.928C16.9009 3.84267 17.0342 3.8 17.2049 3.8H19.2529C19.4235 3.8 19.5569 3.84267 19.6529 3.928C19.7489 4.01333 19.8129 4.11467 19.8449 4.232L23.6529 14.52C23.6635 14.5627 23.6689 14.6107 23.6689 14.664C23.6689 14.7493 23.6369 14.8293 23.5729 14.904C23.5089 14.968 23.4289 15 23.3329 15H21.6689C21.5089 15 21.3915 14.9627 21.3169 14.888C21.2422 14.8133 21.1942 14.744 21.1729 14.68L20.4849 12.888H15.9729L15.2849 14.68C15.2635 14.744 15.2155 14.8133 15.1409 14.888C15.0662 14.9627 14.9489 15 14.7889 15H13.1249ZM16.5649 10.824H19.8769L18.2289 6.216L16.5649 10.824ZM26.2465 15C26.1292 15 26.0332 14.9627 25.9585 14.888C25.8838 14.8133 25.8465 14.7173 25.8465 14.6V4.2C25.8465 4.08267 25.8838 3.98667 25.9585 3.912C26.0332 3.83733 26.1292 3.8 26.2465 3.8H27.9905C28.1078 3.8 28.2038 3.83733 28.2785 3.912C28.3532 3.98667 28.3905 4.08267 28.3905 4.2V8.2H32.7265V4.2C32.7265 4.08267 32.7638 3.98667 32.8385 3.912C32.9132 3.83733 33.0092 3.8 33.1265 3.8H34.8705C34.9878 3.8 35.0838 3.83733 35.1585 3.912C35.2332 3.98667 35.2705 4.08267 35.2705 4.2V14.6C35.2705 14.7173 35.2332 14.8133 35.1585 14.888C35.0838 14.9627 34.9878 15 34.8705 15H33.1265C33.0092 15 32.9132 14.9627 32.8385 14.888C32.7638 14.8133 32.7265 14.7173 32.7265 14.6V10.472H28.3905V14.6C28.3905 14.7173 28.3532 14.8133 28.2785 14.888C28.2038 14.9627 28.1078 15 27.9905 15H26.2465ZM38.8434 15C38.726 15 38.63 14.9627 38.5554 14.888C38.4807 14.8133 38.4434 14.7173 38.4434 14.6V4.2C38.4434 4.08267 38.4807 3.98667 38.5554 3.912C38.63 3.83733 38.726 3.8 38.8434 3.8H46.0914C46.2087 3.8 46.3047 3.83733 46.3794 3.912C46.454 3.98667 46.4914 4.08267 46.4914 4.2V5.48C46.4914 5.58667 46.454 5.67733 46.3794 5.752C46.3047 5.82667 46.2087 5.864 46.0914 5.864H40.9074V8.376H45.7394C45.8567 8.376 45.9527 8.41333 46.0274 8.488C46.102 8.56267 46.1394 8.65867 46.1394 8.776V9.96C46.1394 10.0667 46.102 10.1573 46.0274 10.232C45.9527 10.3067 45.8567 10.344 45.7394 10.344H40.9074V12.936H46.2194C46.3367 12.936 46.4327 12.9733 46.5074 13.048C46.582 13.1227 46.6194 13.2187 46.6194 13.336V14.6C46.6194 14.7173 46.582 14.8133 46.5074 14.888C46.4327 14.9627 46.3367 15 46.2194 15H38.8434ZM56.7775 15C56.6602 15 56.5642 14.9627 56.4895 14.888C56.4148 14.8133 56.3775 14.7173 56.3775 14.6V6.072H53.1615V7.816C53.1615 9.10667 53.0975 10.2053 52.9695 11.112C52.8415 12.008 52.6228 12.7387 52.3135 13.304C52.0042 13.8693 51.5775 14.2907 51.0335 14.568C50.5002 14.8347 49.8175 14.9787 48.9855 15C48.8788 15 48.7828 14.9627 48.6975 14.888C48.6228 14.8027 48.5855 14.7013 48.5855 14.584V13.16C48.5855 12.936 48.7082 12.8027 48.9535 12.76C49.2628 12.7067 49.5242 12.5573 49.7375 12.312C49.9615 12.0667 50.1428 11.7253 50.2815 11.288C50.4308 10.84 50.5375 10.3013 50.6015 9.672C50.6655 9.032 50.6975 8.30667 50.6975 7.496V4.2C50.6975 4.08267 50.7348 3.98667 50.8095 3.912C50.8842 3.83733 50.9748 3.8 51.0815 3.8H58.5215C58.6388 3.8 58.7348 3.83733 58.8095 3.912C58.8842 3.98667 58.9215 4.08267 58.9215 4.2V14.6C58.9215 14.7173 58.8842 14.8133 58.8095 14.888C58.7348 14.9627 58.6388 15 58.5215 15H56.7775ZM62.4903 15C62.3729 15 62.2769 14.9627 62.2023 14.888C62.1276 14.8133 62.0903 14.7173 62.0903 14.6V4.2C62.0903 4.08267 62.1276 3.98667 62.2023 3.912C62.2769 3.83733 62.3729 3.8 62.4903 3.8H64.2343C64.3516 3.8 64.4476 3.83733 64.5223 3.912C64.5969 3.98667 64.6343 4.08267 64.6343 4.2V7.752H66.5223C67.8343 7.752 68.8529 8.05067 69.5783 8.648C70.3036 9.23467 70.6663 10.1253 70.6663 11.32C70.6663 12.024 70.5063 12.6587 70.1863 13.224C69.8769 13.7787 69.4129 14.216 68.7943 14.536C68.1756 14.8453 67.4183 15 66.5223 15H62.4903ZM64.6343 13H66.4423C66.9543 13 67.3489 12.8453 67.6263 12.536C67.9036 12.216 68.0423 11.8107 68.0423 11.32C68.0423 10.7867 67.9036 10.392 67.6263 10.136C67.3489 9.86933 66.9543 9.736 66.4423 9.736H64.6343V13Z" fill="#F3F3F3"/>
</svg>
