<svg width="78" height="23" viewBox="0 0 78 23" fill="none" xmlns="http://www.w3.org/2000/svg">
<g filter="url(#filter0_d_20_71)">
<path d="M4.296 14.888L3.94245 15.2416L3.94245 15.2416L4.296 14.888ZM4.296 3.912L4.64955 4.26555L4.64955 4.26555L4.296 3.912ZM13.496 3.912L13.1424 4.26555L13.1424 4.26555L13.496 3.912ZM13.496 14.888L13.1424 14.5344L13.1424 14.5344L13.496 14.888ZM11.176 14.888L11.5296 14.5344L11.5296 14.5344L11.176 14.888ZM11.064 6.072H11.564V5.572H11.064V6.072ZM6.728 6.072V5.572H6.228V6.072H6.728ZM4.584 14.5C4.57878 14.5 4.58798 14.4993 4.60522 14.506C4.62349 14.5131 4.63913 14.524 4.64955 14.5344L3.94245 15.2416C4.12172 15.4208 4.35021 15.5 4.584 15.5V14.5ZM4.64955 14.5344C4.65998 14.5449 4.6709 14.5605 4.678 14.5788C4.68471 14.596 4.684 14.6052 4.684 14.6H3.684C3.684 14.8338 3.76318 15.0623 3.94245 15.2416L4.64955 14.5344ZM4.684 14.6V4.2H3.684V14.6H4.684ZM4.684 4.2C4.684 4.19478 4.68471 4.20398 4.678 4.22122C4.6709 4.23949 4.65998 4.25513 4.64955 4.26555L3.94245 3.55845C3.76318 3.73771 3.684 3.96621 3.684 4.2H4.684ZM4.64955 4.26555C4.63913 4.27598 4.62349 4.2869 4.60522 4.294C4.58798 4.30071 4.57878 4.3 4.584 4.3V3.3C4.35021 3.3 4.12171 3.37918 3.94245 3.55845L4.64955 4.26555ZM4.584 4.3H13.208V3.3H4.584V4.3ZM13.208 4.3C13.2132 4.3 13.204 4.30071 13.1868 4.294C13.1685 4.2869 13.1529 4.27598 13.1424 4.26555L13.8496 3.55845C13.6703 3.37918 13.4418 3.3 13.208 3.3V4.3ZM13.1424 4.26555C13.132 4.25513 13.1211 4.23949 13.114 4.22122C13.1073 4.20398 13.108 4.19478 13.108 4.2H14.108C14.108 3.96621 14.0288 3.73771 13.8496 3.55844L13.1424 4.26555ZM13.108 4.2V14.6H14.108V4.2H13.108ZM13.108 14.6C13.108 14.6052 13.1073 14.596 13.114 14.5788C13.1211 14.5605 13.132 14.5449 13.1424 14.5344L13.8496 15.2416C14.0288 15.0623 14.108 14.8338 14.108 14.6H13.108ZM13.1424 14.5344C13.1529 14.524 13.1685 14.5131 13.1868 14.506C13.204 14.4993 13.2132 14.5 13.208 14.5V15.5C13.4418 15.5 13.6703 15.4208 13.8496 15.2416L13.1424 14.5344ZM13.208 14.5H11.464V15.5H13.208V14.5ZM11.464 14.5C11.4588 14.5 11.468 14.4993 11.4852 14.506C11.5035 14.5131 11.5191 14.524 11.5296 14.5344L10.8224 15.2416C11.0017 15.4208 11.2302 15.5 11.464 15.5V14.5ZM11.5296 14.5344C11.54 14.5449 11.5509 14.5605 11.558 14.5788C11.5647 14.596 11.564 14.6052 11.564 14.6H10.564C10.564 14.8338 10.6432 15.0623 10.8224 15.2416L11.5296 14.5344ZM11.564 14.6V6.072H10.564V14.6H11.564ZM11.064 5.572H6.728V6.572H11.064V5.572ZM6.228 6.072V14.6H7.228V6.072H6.228ZM6.228 14.6C6.228 14.6052 6.22729 14.596 6.234 14.5788C6.2411 14.5605 6.25202 14.5449 6.26245 14.5344L6.96955 15.2416C7.14882 15.0623 7.228 14.8338 7.228 14.6H6.228ZM6.26245 14.5344C6.27287 14.524 6.28851 14.5131 6.30678 14.506C6.32402 14.4993 6.33322 14.5 6.328 14.5V15.5C6.56179 15.5 6.79029 15.4208 6.96955 15.2416L6.26245 14.5344ZM6.328 14.5H4.584V15.5H6.328V14.5ZM15.8849 14.904L15.5052 15.2294L15.5177 15.244L15.5313 15.2576L15.8849 14.904ZM15.8049 14.52L15.336 14.3464L15.3265 14.3721L15.3198 14.3987L15.8049 14.52ZM19.6129 4.232L20.0818 4.40556L20.0894 4.38486L20.0953 4.36356L19.6129 4.232ZM22.8449 4.232L22.3625 4.36356L22.3683 4.38486L22.376 4.40556L22.8449 4.232ZM26.6529 14.52L27.1379 14.3987L27.1313 14.3721L27.1218 14.3464L26.6529 14.52ZM26.5729 14.904L26.9264 15.2576L26.94 15.244L26.9525 15.2294L26.5729 14.904ZM24.3169 14.888L23.9633 15.2416L23.9633 15.2416L24.3169 14.888ZM24.1729 14.68L24.6472 14.5219L24.6437 14.5113L24.6397 14.5008L24.1729 14.68ZM23.4849 12.888L23.9517 12.7088L23.8285 12.388H23.4849V12.888ZM18.9729 12.888V12.388H18.6293L18.5061 12.7088L18.9729 12.888ZM18.2849 14.68L17.8181 14.5008L17.8141 14.5113L17.8105 14.5219L18.2849 14.68ZM19.5649 10.824L19.0946 10.6542L18.8527 11.324H19.5649V10.824ZM22.8769 10.824V11.324H23.5867L23.3477 10.6556L22.8769 10.824ZM21.2289 6.216L21.6997 6.04762L21.2311 4.73758L20.7586 6.04618L21.2289 6.216ZM16.1249 14.5C16.1332 14.5 16.1531 14.5016 16.1786 14.5118C16.2046 14.5222 16.225 14.537 16.2384 14.5504L15.5313 15.2576C15.6952 15.4215 15.9052 15.5 16.1249 15.5V14.5ZM16.2645 14.5786C16.2632 14.5771 16.2701 14.5848 16.2771 14.6023C16.2845 14.6208 16.2889 14.6424 16.2889 14.664H15.2889C15.2889 14.8866 15.3761 15.0787 15.5052 15.2294L16.2645 14.5786ZM16.2889 14.664C16.2889 14.6432 16.291 14.6369 16.2899 14.6413L15.3198 14.3987C15.2974 14.4884 15.2889 14.5781 15.2889 14.664H16.2889ZM16.2738 14.6936L20.0818 4.40556L19.144 4.05844L15.336 14.3464L16.2738 14.6936ZM20.0953 4.36356C20.1003 4.34517 20.1093 4.3264 20.1371 4.3017L19.4727 3.5543C19.3085 3.70027 19.1895 3.88416 19.1305 4.10044L20.0953 4.36356ZM20.1371 4.3017C20.1284 4.3094 20.123 4.31022 20.1293 4.30821C20.1373 4.30565 20.1604 4.3 20.2049 4.3V3.3C19.9527 3.3 19.6868 3.364 19.4727 3.5543L20.1371 4.3017ZM20.2049 4.3H22.2529V3.3H20.2049V4.3ZM22.2529 4.3C22.2974 4.3 22.3205 4.30565 22.3285 4.30821C22.3348 4.31022 22.3294 4.3094 22.3207 4.3017L22.9851 3.5543C22.771 3.364 22.5051 3.3 22.2529 3.3V4.3ZM22.3207 4.3017C22.3485 4.3264 22.3575 4.34517 22.3625 4.36356L23.3273 4.10044C23.2683 3.88416 23.1493 3.70027 22.9851 3.5543L22.3207 4.3017ZM22.376 4.40556L26.184 14.6936L27.1218 14.3464L23.3138 4.05844L22.376 4.40556ZM26.1678 14.6413C26.1667 14.6369 26.1689 14.6432 26.1689 14.664H27.1689C27.1689 14.5781 27.1604 14.4884 27.1379 14.3987L26.1678 14.6413ZM26.1689 14.664C26.1689 14.6424 26.1732 14.6208 26.1806 14.6023C26.1876 14.5848 26.1945 14.5771 26.1932 14.5786L26.9525 15.2294C27.0816 15.0787 27.1689 14.8866 27.1689 14.664H26.1689ZM26.2193 14.5504C26.2327 14.537 26.2532 14.5222 26.2792 14.5118C26.3046 14.5016 26.3245 14.5 26.3329 14.5V15.5C26.5526 15.5 26.7625 15.4215 26.9264 15.2576L26.2193 14.5504ZM26.3329 14.5H24.6689V15.5H26.3329V14.5ZM24.6689 14.5C24.6481 14.5 24.6333 14.4988 24.6236 14.4975C24.6139 14.4962 24.6107 14.495 24.6125 14.4955C24.6144 14.4962 24.6219 14.4988 24.6328 14.5051C24.644 14.5116 24.6572 14.5212 24.6704 14.5344L23.9633 15.2416C24.1705 15.4487 24.4435 15.5 24.6689 15.5V14.5ZM24.6704 14.5344C24.6493 14.5133 24.6393 14.5002 24.636 14.4954C24.6345 14.4933 24.6354 14.4943 24.6375 14.4983C24.6396 14.5024 24.6434 14.5103 24.6472 14.5219L23.6985 14.8381C23.7544 15.0058 23.8617 15.1399 23.9633 15.2416L24.6704 14.5344ZM24.6397 14.5008L23.9517 12.7088L23.0181 13.0672L23.7061 14.8592L24.6397 14.5008ZM23.4849 12.388H18.9729V13.388H23.4849V12.388ZM18.5061 12.7088L17.8181 14.5008L18.7517 14.8592L19.4397 13.0672L18.5061 12.7088ZM17.8105 14.5219C17.8144 14.5103 17.8181 14.5024 17.8203 14.4983C17.8224 14.4943 17.8232 14.4933 17.8218 14.4954C17.8185 14.5002 17.8085 14.5133 17.7873 14.5344L18.4944 15.2416C18.5961 15.1399 18.7033 15.0058 18.7592 14.8381L17.8105 14.5219ZM17.7873 14.5344C17.8006 14.5212 17.8138 14.5116 17.8249 14.5051C17.8358 14.4988 17.8433 14.4962 17.8453 14.4955C17.8471 14.495 17.8439 14.4962 17.8342 14.4975C17.8245 14.4988 17.8097 14.5 17.7889 14.5V15.5C18.0142 15.5 18.2873 15.4487 18.4944 15.2416L17.7873 14.5344ZM17.7889 14.5H16.1249V15.5H17.7889V14.5ZM19.5649 11.324H22.8769V10.324H19.5649V11.324ZM23.3477 10.6556L21.6997 6.04762L20.7581 6.38437L22.4061 10.9924L23.3477 10.6556ZM20.7586 6.04618L19.0946 10.6542L20.0352 10.9938L21.6992 6.38582L20.7586 6.04618ZM28.9585 14.888L28.6049 15.2416L28.6049 15.2416L28.9585 14.888ZM28.9585 3.912L29.3121 4.26555L29.3121 4.26555L28.9585 3.912ZM31.2785 3.912L30.9249 4.26555L30.9249 4.26555L31.2785 3.912ZM31.3905 8.2H30.8905V8.7H31.3905V8.2ZM35.7265 8.2V8.7H36.2265V8.2H35.7265ZM35.8385 3.912L36.1921 4.26555L36.1921 4.26555L35.8385 3.912ZM38.1585 3.912L37.8049 4.26555L37.8049 4.26555L38.1585 3.912ZM38.1585 14.888L37.8049 14.5344L37.8049 14.5344L38.1585 14.888ZM35.8385 14.888L36.1921 14.5344L36.1921 14.5344L35.8385 14.888ZM35.7265 10.472H36.2265V9.972H35.7265V10.472ZM31.3905 10.472V9.972H30.8905V10.472H31.3905ZM29.2465 14.5C29.2413 14.5 29.2505 14.4993 29.2677 14.506C29.286 14.5131 29.3016 14.524 29.3121 14.5344L28.6049 15.2416C28.7842 15.4208 29.0127 15.5 29.2465 15.5V14.5ZM29.3121 14.5344C29.3225 14.5449 29.3334 14.5605 29.3405 14.5788C29.3472 14.596 29.3465 14.6052 29.3465 14.6H28.3465C28.3465 14.8338 28.4257 15.0623 28.6049 15.2416L29.3121 14.5344ZM29.3465 14.6V4.2H28.3465V14.6H29.3465ZM29.3465 4.2C29.3465 4.19478 29.3472 4.20398 29.3405 4.22122C29.3334 4.23949 29.3225 4.25513 29.3121 4.26555L28.6049 3.55845C28.4257 3.73771 28.3465 3.96621 28.3465 4.2H29.3465ZM29.3121 4.26555C29.3016 4.27598 29.286 4.2869 29.2677 4.294C29.2505 4.30071 29.2413 4.3 29.2465 4.3V3.3C29.0127 3.3 28.7842 3.37918 28.6049 3.55845L29.3121 4.26555ZM29.2465 4.3H30.9905V3.3H29.2465V4.3ZM30.9905 4.3C30.9957 4.3 30.9865 4.30071 30.9693 4.294C30.951 4.2869 30.9354 4.27598 30.9249 4.26555L31.6321 3.55845C31.4528 3.37918 31.2243 3.3 30.9905 3.3V4.3ZM30.9249 4.26555C30.9145 4.25513 30.9036 4.23949 30.8965 4.22122C30.8898 4.20398 30.8905 4.19478 30.8905 4.2H31.8905C31.8905 3.96621 31.8113 3.73771 31.6321 3.55845L30.9249 4.26555ZM30.8905 4.2V8.2H31.8905V4.2H30.8905ZM31.3905 8.7H35.7265V7.7H31.3905V8.7ZM36.2265 8.2V4.2H35.2265V8.2H36.2265ZM36.2265 4.2C36.2265 4.19478 36.2272 4.20398 36.2205 4.22122C36.2134 4.23949 36.2025 4.25513 36.1921 4.26555L35.4849 3.55844C35.3057 3.73771 35.2265 3.96621 35.2265 4.2H36.2265ZM36.1921 4.26555C36.1816 4.27598 36.166 4.2869 36.1477 4.294C36.1305 4.30071 36.1213 4.3 36.1265 4.3V3.3C35.8927 3.3 35.6642 3.37918 35.4849 3.55845L36.1921 4.26555ZM36.1265 4.3H37.8705V3.3H36.1265V4.3ZM37.8705 4.3C37.8757 4.3 37.8665 4.30071 37.8493 4.294C37.831 4.2869 37.8154 4.27598 37.8049 4.26555L38.5121 3.55845C38.3328 3.37918 38.1043 3.3 37.8705 3.3V4.3ZM37.8049 4.26555C37.7945 4.25513 37.7836 4.23949 37.7765 4.22122C37.7698 4.20398 37.7705 4.19478 37.7705 4.2H38.7705C38.7705 3.96621 38.6913 3.73771 38.5121 3.55844L37.8049 4.26555ZM37.7705 4.2V14.6H38.7705V4.2H37.7705ZM37.7705 14.6C37.7705 14.6052 37.7698 14.596 37.7765 14.5788C37.7836 14.5605 37.7945 14.5449 37.8049 14.5344L38.5121 15.2416C38.6913 15.0623 38.7705 14.8338 38.7705 14.6H37.7705ZM37.8049 14.5344C37.8154 14.524 37.831 14.5131 37.8493 14.506C37.8665 14.4993 37.8757 14.5 37.8705 14.5V15.5C38.1043 15.5 38.3328 15.4208 38.5121 15.2416L37.8049 14.5344ZM37.8705 14.5H36.1265V15.5H37.8705V14.5ZM36.1265 14.5C36.1213 14.5 36.1305 14.4993 36.1477 14.506C36.166 14.5131 36.1816 14.524 36.1921 14.5344L35.4849 15.2416C35.6642 15.4208 35.8927 15.5 36.1265 15.5V14.5ZM36.1921 14.5344C36.2025 14.5449 36.2134 14.5605 36.2205 14.5788C36.2272 14.596 36.2265 14.6052 36.2265 14.6H35.2265C35.2265 14.8338 35.3057 15.0623 35.4849 15.2416L36.1921 14.5344ZM36.2265 14.6V10.472H35.2265V14.6H36.2265ZM35.7265 9.972H31.3905V10.972H35.7265V9.972ZM30.8905 10.472V14.6H31.8905V10.472H30.8905ZM30.8905 14.6C30.8905 14.6052 30.8898 14.596 30.8965 14.5788C30.9036 14.5605 30.9145 14.5449 30.9249 14.5344L31.6321 15.2416C31.8113 15.0623 31.8905 14.8338 31.8905 14.6H30.8905ZM30.9249 14.5344C30.9354 14.524 30.951 14.5131 30.9693 14.506C30.9865 14.4993 30.9957 14.5 30.9905 14.5V15.5C31.2243 15.5 31.4528 15.4208 31.6321 15.2416L30.9249 14.5344ZM30.9905 14.5H29.2465V15.5H30.9905V14.5ZM41.5554 14.888L41.2018 15.2416L41.2018 15.2416L41.5554 14.888ZM41.5554 3.912L41.9089 4.26555L41.9089 4.26555L41.5554 3.912ZM49.3794 5.752L49.7329 6.10555L49.7329 6.10555L49.3794 5.752ZM43.9074 5.864V5.364H43.4074V5.864H43.9074ZM43.9074 8.376H43.4074V8.876H43.9074V8.376ZM49.0274 8.488L49.3809 8.13445L49.3809 8.13445L49.0274 8.488ZM49.0274 10.232L49.3809 10.5856L49.3809 10.5856L49.0274 10.232ZM43.9074 10.344V9.844H43.4074V10.344H43.9074ZM43.9074 12.936H43.4074V13.436H43.9074V12.936ZM49.5074 13.048L49.1538 13.4016L49.1538 13.4016L49.5074 13.048ZM49.5074 14.888L49.1538 14.5344L49.1538 14.5344L49.5074 14.888ZM41.8434 14.5C41.8382 14.5 41.8474 14.4993 41.8646 14.506C41.8829 14.5131 41.8985 14.524 41.9089 14.5344L41.2018 15.2416C41.3811 15.4208 41.6096 15.5 41.8434 15.5V14.5ZM41.9089 14.5344C41.9194 14.5449 41.9303 14.5605 41.9374 14.5788C41.9441 14.596 41.9434 14.6052 41.9434 14.6H40.9434C40.9434 14.8338 41.0226 15.0623 41.2018 15.2416L41.9089 14.5344ZM41.9434 14.6V4.2H40.9434V14.6H41.9434ZM41.9434 4.2C41.9434 4.19478 41.9441 4.20398 41.9374 4.22122C41.9303 4.23949 41.9194 4.25513 41.9089 4.26555L41.2018 3.55845C41.0226 3.73771 40.9434 3.96621 40.9434 4.2H41.9434ZM41.9089 4.26555C41.8985 4.27598 41.8829 4.2869 41.8646 4.294C41.8474 4.30071 41.8382 4.3 41.8434 4.3V3.3C41.6096 3.3 41.3811 3.37918 41.2018 3.55845L41.9089 4.26555ZM41.8434 4.3H49.0914V3.3H41.8434V4.3ZM49.0914 4.3C49.0966 4.3 49.0874 4.30071 49.0702 4.294C49.0519 4.2869 49.0363 4.27598 49.0258 4.26555L49.7329 3.55845C49.5537 3.37918 49.3252 3.3 49.0914 3.3V4.3ZM49.0258 4.26555C49.0154 4.25513 49.0045 4.23949 48.9974 4.22122C48.9907 4.20398 48.9914 4.19478 48.9914 4.2H49.9914C49.9914 3.96621 49.9122 3.73772 49.7329 3.55845L49.0258 4.26555ZM48.9914 4.2V5.48H49.9914V4.2H48.9914ZM48.9914 5.48C48.9914 5.4738 48.9927 5.4578 49.001 5.43763C49.0094 5.41735 49.0201 5.40417 49.0258 5.39845L49.7329 6.10555C49.9024 5.93605 49.9914 5.71776 49.9914 5.48H48.9914ZM49.0258 5.39844C49.0363 5.38802 49.0519 5.3771 49.0702 5.37C49.0874 5.36329 49.0966 5.364 49.0914 5.364V6.364C49.3252 6.364 49.5537 6.28482 49.7329 6.10555L49.0258 5.39844ZM49.0914 5.364H43.9074V6.364H49.0914V5.364ZM43.4074 5.864V8.376H44.4074V5.864H43.4074ZM43.9074 8.876H48.7394V7.876H43.9074V8.876ZM48.7394 8.876C48.7446 8.876 48.7354 8.87671 48.7182 8.87C48.6999 8.8629 48.6842 8.85198 48.6738 8.84155L49.3809 8.13445C49.2017 7.95518 48.9732 7.876 48.7394 7.876V8.876ZM48.6738 8.84155C48.6634 8.83113 48.6525 8.81549 48.6454 8.79722C48.6387 8.77998 48.6394 8.77078 48.6394 8.776H49.6394C49.6394 8.54221 49.5602 8.31372 49.3809 8.13445L48.6738 8.84155ZM48.6394 8.776V9.96H49.6394V8.776H48.6394ZM48.6394 9.96C48.6394 9.9538 48.6407 9.9378 48.649 9.91763C48.6574 9.89735 48.6681 9.88417 48.6738 9.87845L49.3809 10.5856C49.5504 10.4161 49.6394 10.1978 49.6394 9.96H48.6394ZM48.6738 9.87845C48.6843 9.86802 48.6999 9.8571 48.7182 9.85C48.7354 9.84329 48.7446 9.844 48.7394 9.844V10.844C48.9732 10.844 49.2017 10.7648 49.3809 10.5856L48.6738 9.87845ZM48.7394 9.844H43.9074V10.844H48.7394V9.844ZM43.4074 10.344V12.936H44.4074V10.344H43.4074ZM43.9074 13.436H49.2194V12.436H43.9074V13.436ZM49.2194 13.436C49.2246 13.436 49.2154 13.4367 49.1982 13.43C49.1799 13.4229 49.1642 13.412 49.1538 13.4016L49.8609 12.6944C49.6817 12.5152 49.4532 12.436 49.2194 12.436V13.436ZM49.1538 13.4016C49.1434 13.3911 49.1325 13.3755 49.1254 13.3572C49.1187 13.34 49.1194 13.3308 49.1194 13.336H50.1194C50.1194 13.1022 50.0402 12.8737 49.8609 12.6944L49.1538 13.4016ZM49.1194 13.336V14.6H50.1194V13.336H49.1194ZM49.1194 14.6C49.1194 14.6052 49.1187 14.596 49.1254 14.5788C49.1325 14.5605 49.1434 14.5449 49.1538 14.5344L49.8609 15.2416C50.0402 15.0623 50.1194 14.8338 50.1194 14.6H49.1194ZM49.1538 14.5344C49.1642 14.524 49.1799 14.5131 49.1982 14.506C49.2154 14.4993 49.2246 14.5 49.2194 14.5V15.5C49.4532 15.5 49.6817 15.4208 49.8609 15.2416L49.1538 14.5344ZM49.2194 14.5H41.8434V15.5H49.2194V14.5ZM59.4895 14.888L59.1359 15.2416L59.1359 15.2416L59.4895 14.888ZM59.3775 6.072H59.8775V5.572H59.3775V6.072ZM56.1615 6.072V5.572H55.6615V6.072H56.1615ZM55.9695 11.112L56.4645 11.1827L56.4646 11.1819L55.9695 11.112ZM55.3135 13.304L54.8749 13.064L54.8749 13.064L55.3135 13.304ZM54.0335 14.568L54.2571 15.0152L54.2606 15.0135L54.0335 14.568ZM51.9855 15V15.5002L51.9983 15.4998L51.9855 15ZM51.6975 14.888L51.3212 15.2173L51.3432 15.2423L51.3682 15.2643L51.6975 14.888ZM51.9535 12.76L51.8685 12.2673L51.8678 12.2674L51.9535 12.76ZM52.7375 12.312L52.3681 11.9748L52.3602 11.9839L52.7375 12.312ZM53.2815 11.288L52.8071 11.1299L52.8049 11.1369L53.2815 11.288ZM53.6015 9.672L54.0989 9.72259L54.099 9.72175L53.6015 9.672ZM53.8095 3.912L54.1631 4.26555L54.1631 4.26555L53.8095 3.912ZM61.8095 14.888L62.1631 15.2416L62.1631 15.2416L61.8095 14.888ZM59.7775 14.5C59.7723 14.5 59.7815 14.4993 59.7987 14.506C59.817 14.5131 59.8326 14.524 59.8431 14.5344L59.1359 15.2416C59.3152 15.4208 59.5437 15.5 59.7775 15.5V14.5ZM59.8431 14.5344C59.8535 14.5449 59.8644 14.5605 59.8715 14.5788C59.8782 14.596 59.8775 14.6052 59.8775 14.6H58.8775C58.8775 14.8338 58.9567 15.0623 59.1359 15.2416L59.8431 14.5344ZM59.8775 14.6V6.072H58.8775V14.6H59.8775ZM59.3775 5.572H56.1615V6.572H59.3775V5.572ZM55.6615 6.072V7.816H56.6615V6.072H55.6615ZM55.6615 7.816C55.6615 9.09194 55.5981 10.1658 55.4744 11.0421L56.4646 11.1819C56.5969 10.2448 56.6615 9.12139 56.6615 7.816H55.6615ZM55.4745 11.0413C55.3518 11.9001 55.1463 12.5679 54.8749 13.064L55.7521 13.544C56.0993 12.9095 56.3312 12.1159 56.4645 11.1827L55.4745 11.0413ZM54.8749 13.064C54.611 13.5463 54.2557 13.8935 53.8064 14.1225L54.2606 15.0135C54.8993 14.6879 55.3974 14.1924 55.7521 13.544L54.8749 13.064ZM53.8099 14.1208C53.3627 14.3444 52.7586 14.48 51.9727 14.5002L51.9983 15.4998C52.8764 15.4773 53.6376 15.325 54.2571 15.0152L53.8099 14.1208ZM51.9855 14.5C51.9919 14.5 52.0029 14.5014 52.0147 14.506C52.0261 14.5104 52.0301 14.5146 52.0268 14.5117L51.3682 15.2643C51.5385 15.4132 51.7497 15.5 51.9855 15.5V14.5ZM52.0738 14.5587C52.0739 14.5589 52.0753 14.5605 52.0772 14.5638C52.0792 14.567 52.0811 14.5709 52.0827 14.5751C52.0861 14.5844 52.0855 14.5888 52.0855 14.584H51.0855C51.0855 14.8178 51.1638 15.0374 51.3212 15.2173L52.0738 14.5587ZM52.0855 14.584V13.16H51.0855V14.584H52.0855ZM52.0855 13.16C52.0855 13.1492 52.087 13.1551 52.0814 13.1713C52.0753 13.1892 52.0636 13.2108 52.0455 13.2305C52.0088 13.2704 51.985 13.262 52.0392 13.2526L51.8678 12.2674C51.6767 12.3006 51.4689 12.3802 51.3095 12.5535C51.1444 12.733 51.0855 12.9536 51.0855 13.16H52.0855ZM52.0385 13.2527C52.4656 13.1791 52.8288 12.969 53.1148 12.6401L52.3602 11.9839C52.2195 12.1457 52.0601 12.2343 51.8685 12.2673L52.0385 13.2527ZM53.1067 12.6491C53.3945 12.334 53.6054 11.9208 53.7581 11.4391L52.8049 11.1369C52.6803 11.5299 52.5285 11.7993 52.3683 11.9749L53.1067 12.6491ZM53.7558 11.4461C53.92 10.9538 54.0324 10.377 54.0989 9.72259L53.1041 9.62141C53.0426 10.2257 52.9417 10.7262 52.8072 11.1299L53.7558 11.4461ZM54.099 9.72175C54.165 9.06162 54.1975 8.31923 54.1975 7.496H53.1975C53.1975 8.29411 53.166 9.00238 53.104 9.62225L54.099 9.72175ZM54.1975 7.496V4.2H53.1975V7.496H54.1975ZM54.1975 4.2C54.1975 4.19478 54.1982 4.20398 54.1915 4.22122C54.1844 4.23949 54.1735 4.25513 54.1631 4.26555L53.4559 3.55845C53.2767 3.73771 53.1975 3.96621 53.1975 4.2H54.1975ZM54.1631 4.26555C54.1573 4.27127 54.1442 4.28199 54.1239 4.29034C54.1037 4.29865 54.0877 4.3 54.0815 4.3V3.3C53.8437 3.3 53.6254 3.38895 53.4559 3.55845L54.1631 4.26555ZM54.0815 4.3H61.5215V3.3H54.0815V4.3ZM61.5215 4.3C61.5267 4.3 61.5175 4.30071 61.5003 4.294C61.482 4.2869 61.4664 4.27598 61.4559 4.26555L62.1631 3.55845C61.9838 3.37918 61.7553 3.3 61.5215 3.3V4.3ZM61.4559 4.26555C61.4455 4.25513 61.4346 4.23949 61.4275 4.22122C61.4208 4.20398 61.4215 4.19478 61.4215 4.2H62.4215C62.4215 3.96621 62.3423 3.73772 62.1631 3.55845L61.4559 4.26555ZM61.4215 4.2V14.6H62.4215V4.2H61.4215ZM61.4215 14.6C61.4215 14.6052 61.4208 14.596 61.4275 14.5788C61.4346 14.5605 61.4455 14.5449 61.4559 14.5344L62.1631 15.2416C62.3423 15.0623 62.4215 14.8338 62.4215 14.6H61.4215ZM61.4559 14.5344C61.4664 14.524 61.482 14.5131 61.5003 14.506C61.5175 14.4993 61.5267 14.5 61.5215 14.5V15.5C61.7553 15.5 61.9838 15.4208 62.1631 15.2416L61.4559 14.5344ZM61.5215 14.5H59.7775V15.5H61.5215V14.5ZM65.2023 14.888L64.8487 15.2416L64.8487 15.2416L65.2023 14.888ZM65.2023 3.912L65.5558 4.26555L65.5558 4.26555L65.2023 3.912ZM67.5223 3.912L67.1687 4.26555L67.1687 4.26555L67.5223 3.912ZM67.6343 7.752H67.1343V8.252H67.6343V7.752ZM72.5783 8.648L72.2604 9.03398L72.2638 9.03676L72.5783 8.648ZM73.1863 13.224L72.7511 12.9777L72.7496 12.9805L73.1863 13.224ZM71.7943 14.536L72.0179 14.9833L72.024 14.9801L71.7943 14.536ZM67.6343 13H67.1343V13.5H67.6343V13ZM70.6263 12.536L70.9986 12.8698L71.0041 12.8635L70.6263 12.536ZM70.6263 10.136L70.2796 10.4965L70.2871 10.5034L70.6263 10.136ZM67.6343 9.736V9.236H67.1343V9.736H67.6343ZM65.4903 14.5C65.485 14.5 65.4942 14.4993 65.5115 14.506C65.5297 14.5131 65.5454 14.524 65.5558 14.5344L64.8487 15.2416C65.028 15.4208 65.2565 15.5 65.4903 15.5V14.5ZM65.5558 14.5344C65.5662 14.5449 65.5771 14.5605 65.5843 14.5788C65.591 14.596 65.5903 14.6052 65.5903 14.6H64.5903C64.5903 14.8338 64.6694 15.0623 64.8487 15.2416L65.5558 14.5344ZM65.5903 14.6V4.2H64.5903V14.6H65.5903ZM65.5903 4.2C65.5903 4.19478 65.591 4.20398 65.5843 4.22122C65.5771 4.23949 65.5662 4.25513 65.5558 4.26555L64.8487 3.55845C64.6694 3.73771 64.5903 3.96621 64.5903 4.2H65.5903ZM65.5558 4.26555C65.5454 4.27598 65.5297 4.2869 65.5115 4.294C65.4942 4.30071 65.485 4.3 65.4903 4.3V3.3C65.2565 3.3 65.028 3.37918 64.8487 3.55845L65.5558 4.26555ZM65.4903 4.3H67.2343V3.3H65.4903V4.3ZM67.2343 4.3C67.2395 4.3 67.2303 4.30071 67.213 4.294C67.1948 4.2869 67.1791 4.27598 67.1687 4.26555L67.8758 3.55845C67.6965 3.37918 67.468 3.3 67.2343 3.3V4.3ZM67.1687 4.26555C67.1583 4.25513 67.1474 4.23949 67.1402 4.22122C67.1335 4.20398 67.1343 4.19478 67.1343 4.2H68.1343C68.1343 3.96621 68.0551 3.73771 67.8758 3.55845L67.1687 4.26555ZM67.1343 4.2V7.752H68.1343V4.2H67.1343ZM67.6343 8.252H69.5223V7.252H67.6343V8.252ZM69.5223 8.252C70.7637 8.252 71.6543 8.53482 72.2604 9.03396L72.8961 8.26203C72.0515 7.56651 70.9048 7.252 69.5223 7.252V8.252ZM72.2638 9.03676C72.8402 9.50293 73.1663 10.2303 73.1663 11.32H74.1663C74.1663 10.0204 73.767 8.9664 72.8927 8.25924L72.2638 9.03676ZM73.1663 11.32C73.1663 11.9451 73.0251 12.4937 72.7511 12.9777L73.6214 13.4703C73.9874 12.8236 74.1663 12.1029 74.1663 11.32H73.1663ZM72.7496 12.9805C72.4926 13.4412 72.1048 13.8124 71.5645 14.0919L72.024 14.9801C72.721 14.6196 73.2612 14.1162 73.6229 13.4675L72.7496 12.9805ZM71.5706 14.0888C71.0388 14.3547 70.3628 14.5 69.5223 14.5V15.5C70.4737 15.5 71.3124 15.336 72.0179 14.9832L71.5706 14.0888ZM69.5223 14.5H65.4903V15.5H69.5223V14.5ZM67.6343 13.5H69.4423V12.5H67.6343V13.5ZM69.4423 13.5C70.0607 13.5 70.6049 13.3088 70.9985 12.8698L70.254 12.2022C70.0929 12.3818 69.8478 12.5 69.4423 12.5V13.5ZM71.0041 12.8635C71.3725 12.4384 71.5423 11.9107 71.5423 11.32H70.5423C70.5423 11.7106 70.4346 11.9936 70.2484 12.2085L71.0041 12.8635ZM71.5423 11.32C71.5423 10.7062 71.3818 10.153 70.9654 9.7686L70.2871 10.5034C70.4254 10.631 70.5423 10.8672 70.5423 11.32H71.5423ZM70.9728 9.77558C70.5749 9.39294 70.0395 9.236 69.4423 9.236V10.236C69.869 10.236 70.123 10.3457 70.2797 10.4964L70.9728 9.77558ZM69.4423 9.236H67.6343V10.236H69.4423V9.236ZM67.1343 9.736V13H68.1343V9.736H67.1343Z" fill="#F3F3F3"/>
</g>
<defs>
<filter id="filter0_d_20_71" x="0.18396" y="3.79999" width="77.4823" height="19.2" filterUnits="userSpaceOnUse" color-interpolation-filters="sRGB">
<feFlood flood-opacity="0" result="BackgroundImageFix"/>
<feColorMatrix in="SourceAlpha" type="matrix" values="0 0 0 0 0 0 0 0 0 0 0 0 0 0 0 0 0 0 127 0" result="hardAlpha"/>
<feOffset dy="4"/>
<feGaussianBlur stdDeviation="2"/>
<feComposite in2="hardAlpha" operator="out"/>
<feColorMatrix type="matrix" values="0 0 0 0 0 0 0 0 0 0 0 0 0 0 0 0 0 0 0.25 0"/>
<feBlend mode="normal" in2="BackgroundImageFix" result="effect1_dropShadow_20_71"/>
<feBlend mode="normal" in="SourceGraphic" in2="effect1_dropShadow_20_71" result="shape"/>
</filter>
</defs>
</svg>
