<svg width="32" height="31" viewBox="0 0 32 31" fill="none" xmlns="http://www.w3.org/2000/svg">
<path d="M21.6384 9.10143L30.3458 10.3849C31.0669 10.4878 31.6728 10.9963 31.903 11.6925C32.1333 12.3948 31.9455 13.1576 31.4244 13.6782L25.1105 19.8653L26.6011 28.7404C26.7223 29.4669 26.4254 30.2054 25.8194 30.6353C25.2195 31.0651 24.4257 31.1196 23.7774 30.7745L15.9971 26.6276L8.22291 30.7745C7.5685 31.1196 6.77471 31.0651 6.17483 30.6353C5.57495 30.2054 5.27198 29.4669 5.39923 28.7404L6.88984 19.8653L0.574737 13.6782C0.0530228 13.1576 -0.132395 12.3948 0.0966503 11.6925C0.32509 10.9963 0.929212 10.4878 1.65573 10.3849L10.3558 9.10143L14.2581 1.09026C14.5792 0.423357 15.2579 0 15.9971 0C16.7424 0 17.4211 0.423357 17.7422 1.09026L21.6384 9.10143Z" fill="white"/>
</svg>
