<svg width="30" height="30" viewBox="0 0 30 30" fill="none" xmlns="http://www.w3.org/2000/svg">
<path d="M15 0C6.71566 0 0 6.71566 0 15C0 23.2843 6.71566 30 15 30C23.2843 30 30 23.2843 30 15C30 6.71566 23.2843 0 15 0Z" fill="#40B3E0"/>
<path d="M22.2987 8.62858L19.6196 22.1364C19.6196 22.1364 19.245 23.0732 18.2145 22.6236L12.0319 17.8836L9.78382 16.797L5.99937 15.523C5.99937 15.523 5.41859 15.3169 5.36234 14.8673C5.3062 14.4176 6.01812 14.1741 6.01812 14.1741L21.0622 8.27257C21.0622 8.27257 22.2987 7.72929 22.2987 8.62858Z" fill="white"/>
<path d="M11.5568 21.9848C11.5568 21.9848 11.3763 21.9679 11.1514 21.2559C10.9267 20.544 9.78384 16.797 9.78384 16.797L18.8702 11.0267C18.8702 11.0267 19.3949 10.7082 19.3761 11.0267C19.3761 11.0267 19.4697 11.0828 19.1887 11.3451C18.9077 11.6075 12.0507 17.7712 12.0507 17.7712" fill="#D2E5F1"/>
<path d="M14.4025 19.701L11.9571 21.9306C11.9571 21.9306 11.7659 22.0757 11.5567 21.9848L12.025 17.8433" fill="#B5CFE4"/>
</svg>
